<svg xmlns="http://www.w3.org/2000/svg" width="1440" height="1000" viewBox="0 0 1440 1000" role="img" aria-labelledby="title desc">
  <title id="title">Golding OS dashboard screenshot preview</title>
  <desc id="desc">Authenticated executive dashboard preview with sidebar, metrics, cards, tasks, approvals, and activity.</desc>
  <rect width="1440" height="1000" fill="#081616"/>
  <rect x="0" y="0" width="280" height="1000" fill="#0C2E29"/>
  <rect x="32" y="32" width="44" height="44" rx="12" fill="#C7A24A"/>
  <text x="47" y="62" fill="#081616" font-family="Arial" font-size="24" font-weight="900">G</text>
  <text x="92" y="61" fill="#F6F4EE" font-family="Arial" font-size="24" font-weight="800">Golding OS</text>
  <g fill="#F6F4EE" opacity="0.82" font-family="Arial" font-size="18">
    <text x="40" y="145">Dashboard</text><text x="40" y="195">CEO</text><text x="40" y="245">The Law Library</text><text x="40" y="295">Golding Compound</text><text x="40" y="345">YouPassGo</text><text x="40" y="395">Relax With Me</text><text x="40" y="445">Funding</text><text x="40" y="495">CRM</text><text x="40" y="545">Projects</text><text x="40" y="595">Documents</text><text x="40" y="645">Knowledge</text><text x="40" y="695">AI Agents</text><text x="40" y="745">Settings</text>
  </g>
  <text x="330" y="70" fill="#D9BF72" font-family="Arial" font-size="16" font-weight="800" letter-spacing="3">PRODUCTION FOUNDATION</text>
  <text x="330" y="130" fill="#F6F4EE" font-family="Arial" font-size="52" font-weight="900">Executive Dashboard</text>
  <g>
    <rect x="330" y="180" width="240" height="150" rx="24" fill="#103F35" stroke="#D9BF72" stroke-opacity="0.22"/><rect x="595" y="180" width="240" height="150" rx="24" fill="#103F35" stroke="#D9BF72" stroke-opacity="0.22"/><rect x="860" y="180" width="240" height="150" rx="24" fill="#103F35" stroke="#D9BF72" stroke-opacity="0.22"/><rect x="1125" y="180" width="240" height="150" rx="24" fill="#103F35" stroke="#D9BF72" stroke-opacity="0.22"/>
    <text x="355" y="225" fill="#F6F4EE" opacity="0.75" font-family="Arial" font-size="18">Businesses</text><text x="355" y="282" fill="#D9BF72" font-family="Arial" font-size="54" font-weight="900">4</text>
    <text x="620" y="225" fill="#F6F4EE" opacity="0.75" font-family="Arial" font-size="18">Today's tasks</text><text x="620" y="282" fill="#D9BF72" font-family="Arial" font-size="54" font-weight="900">8</text>
    <text x="885" y="225" fill="#F6F4EE" opacity="0.75" font-family="Arial" font-size="18">Approvals</text><text x="885" y="282" fill="#D9BF72" font-family="Arial" font-size="54" font-weight="900">6</text>
    <text x="1150" y="225" fill="#F6F4EE" opacity="0.75" font-family="Arial" font-size="18">Activity</text><text x="1150" y="282" fill="#D9BF72" font-family="Arial" font-size="54" font-weight="900">8</text>
  </g>
  <rect x="330" y="370" width="635" height="250" rx="28" fill="#103F35" stroke="#D9BF72" stroke-opacity="0.22"/>
  <text x="365" y="425" fill="#D9BF72" font-family="Arial" font-size="16" font-weight="800">EXECUTIVE BRIEF</text>
  <text x="365" y="485" fill="#F6F4EE" font-family="Arial" font-size="34" font-weight="900">Authenticated operating brief</text>
  <text x="365" y="540" fill="#F6F4EE" opacity="0.76" font-family="Arial" font-size="22">Supabase-backed sections render user-owned data.</text>
  <rect x="1000" y="370" width="365" height="250" rx="28" fill="#103F35" stroke="#D9BF72" stroke-opacity="0.22"/>
  <text x="1035" y="425" fill="#D9BF72" font-family="Arial" font-size="16" font-weight="800">AI COMMAND CENTER</text>
  <rect x="1035" y="465" width="295" height="88" rx="16" fill="#081616" stroke="#D9BF72" stroke-opacity="0.30"/>
  <rect x="330" y="660" width="500" height="250" rx="28" fill="#103F35" stroke="#D9BF72" stroke-opacity="0.22"/>
  <text x="365" y="720" fill="#F6F4EE" font-family="Arial" font-size="32" font-weight="900">Today's Tasks</text>
  <rect x="865" y="660" width="500" height="250" rx="28" fill="#103F35" stroke="#D9BF72" stroke-opacity="0.22"/>
  <text x="900" y="720" fill="#F6F4EE" font-family="Arial" font-size="32" font-weight="900">Pending Approvals</text>
</svg>
